<svg width="275" height="101" viewBox="0 0 275 101" fill="none" xmlns="http://www.w3.org/2000/svg">
<rect y="0.5" width="100" height="100" rx="15" fill="#F5D79B"/>
<path d="M123.414 57.3C122.447 57.3 121.439 57.175 120.389 56.925C119.339 56.675 118.347 56.3333 117.414 55.9V53.525C118.514 54.125 119.53 54.5667 120.464 54.85C121.414 55.1333 122.347 55.275 123.264 55.275C124.414 55.275 125.305 55.0167 125.939 54.5C126.572 53.9833 126.889 53.275 126.889 52.375C126.889 51.7583 126.714 51.2417 126.364 50.825C126.014 50.4083 125.572 50.075 125.039 49.825C124.505 49.575 123.789 49.3 122.889 49C121.805 48.6333 120.93 48.2833 120.264 47.95C119.614 47.6167 119.055 47.1417 118.589 46.525C118.122 45.9083 117.889 45.1083 117.889 44.125C117.889 42.6583 118.422 41.4917 119.489 40.625C120.555 39.7417 121.989 39.3 123.789 39.3C125.539 39.3 127.147 39.675 128.614 40.425V42.725C126.964 41.7917 125.355 41.325 123.789 41.325C122.639 41.325 121.739 41.5583 121.089 42.025C120.439 42.475 120.114 43.1 120.114 43.9C120.114 44.45 120.28 44.9083 120.614 45.275C120.947 45.6417 121.355 45.9417 121.839 46.175C122.322 46.3917 123.005 46.6583 123.889 46.975C124.989 47.3417 125.889 47.7 126.589 48.05C127.289 48.4 127.88 48.9083 128.364 49.575C128.864 50.2417 129.114 51.1 129.114 52.15C129.114 53.1833 128.88 54.0917 128.414 54.875C127.947 55.6417 127.28 56.2417 126.414 56.675C125.547 57.0917 124.547 57.3 123.414 57.3ZM148.13 39.6V57H145.93L136.58 43.575V57H134.38V39.6H136.58L145.93 53.025V39.6H148.13ZM164.625 52.4H156.25L154.475 57H152.275L158.975 39.6H162.025L168.725 57H166.4L164.625 52.4ZM163.9 50.525L160.45 41.525L156.975 50.525H163.9ZM179.105 57.3C177.422 57.3 175.988 56.925 174.805 56.175C173.638 55.425 172.755 54.375 172.155 53.025C171.572 51.675 171.28 50.1 171.28 48.3C171.28 46.5 171.572 44.925 172.155 43.575C172.755 42.225 173.638 41.175 174.805 40.425C175.988 39.675 177.422 39.3 179.105 39.3C180.022 39.3 180.905 39.4167 181.755 39.65C182.605 39.8667 183.38 40.1917 184.08 40.625V43.125H183.98C183.43 42.5917 182.738 42.1667 181.905 41.85C181.072 41.5167 180.163 41.35 179.18 41.35C177.28 41.35 175.88 41.9667 174.98 43.2C174.097 44.4333 173.655 46.1333 173.655 48.3C173.655 50.4833 174.097 52.1917 174.98 53.425C175.88 54.6583 177.272 55.275 179.155 55.275C180.105 55.275 180.997 55.1167 181.83 54.8C182.68 54.4833 183.397 54.0417 183.98 53.475H184.08V55.975C183.38 56.4083 182.605 56.7417 181.755 56.975C180.905 57.1917 180.022 57.3 179.105 57.3ZM194.598 48.975L192.073 51.9V57H189.873V39.6H192.073V48.7L199.923 39.6H202.623L196.148 47.15L203.173 57H200.348L194.598 48.975ZM212.403 57.3C211.436 57.3 210.428 57.175 209.378 56.925C208.328 56.675 207.336 56.3333 206.403 55.9V53.525C207.503 54.125 208.52 54.5667 209.453 54.85C210.403 55.1333 211.336 55.275 212.253 55.275C213.403 55.275 214.295 55.0167 214.928 54.5C215.561 53.9833 215.878 53.275 215.878 52.375C215.878 51.7583 215.703 51.2417 215.353 50.825C215.003 50.4083 214.561 50.075 214.028 49.825C213.495 49.575 212.778 49.3 211.878 49C210.795 48.6333 209.92 48.2833 209.253 47.95C208.603 47.6167 208.045 47.1417 207.578 46.525C207.111 45.9083 206.878 45.1083 206.878 44.125C206.878 42.6583 207.411 41.4917 208.478 40.625C209.545 39.7417 210.978 39.3 212.778 39.3C214.528 39.3 216.136 39.675 217.603 40.425V42.725C215.953 41.7917 214.345 41.325 212.778 41.325C211.628 41.325 210.728 41.5583 210.078 42.025C209.428 42.475 209.103 43.1 209.103 43.9C209.103 44.45 209.27 44.9083 209.603 45.275C209.936 45.6417 210.345 45.9417 210.828 46.175C211.311 46.3917 211.995 46.6583 212.878 46.975C213.978 47.3417 214.878 47.7 215.578 48.05C216.278 48.4 216.87 48.9083 217.353 49.575C217.853 50.2417 218.103 51.1 218.103 52.15C218.103 53.1833 217.87 54.0917 217.403 54.875C216.936 55.6417 216.27 56.2417 215.403 56.675C214.536 57.0917 213.536 57.3 212.403 57.3ZM230.744 57.3C229.061 57.3 227.619 56.925 226.419 56.175C225.236 55.425 224.327 54.375 223.694 53.025C223.077 51.675 222.769 50.1 222.769 48.3C222.769 46.5 223.077 44.925 223.694 43.575C224.327 42.225 225.236 41.175 226.419 40.425C227.619 39.675 229.061 39.3 230.744 39.3C232.427 39.3 233.861 39.675 235.044 40.425C236.244 41.175 237.152 42.225 237.769 43.575C238.402 44.925 238.719 46.5 238.719 48.3C238.719 50.1 238.402 51.675 237.769 53.025C237.152 54.375 236.244 55.425 235.044 56.175C233.861 56.925 232.427 57.3 230.744 57.3ZM230.744 55.3C232.611 55.3 234.011 54.675 234.944 53.425C235.877 52.1583 236.344 50.45 236.344 48.3C236.344 46.15 235.877 44.45 234.944 43.2C234.011 41.9333 232.611 41.3 230.744 41.3C228.877 41.3 227.477 41.9333 226.544 43.2C225.611 44.45 225.144 46.15 225.144 48.3C225.144 50.45 225.611 52.1583 226.544 53.425C227.477 54.675 228.877 55.3 230.744 55.3ZM254.34 57L250.815 50.175H250.565H246.565V57H244.365V39.6H250.265C252.349 39.6 253.899 40.0417 254.915 40.925C255.932 41.7917 256.44 43.0667 256.44 44.75C256.44 46 256.165 47.0583 255.615 47.925C255.065 48.7917 254.257 49.4083 253.19 49.775L256.99 57H254.34ZM250.29 48.1C251.59 48.1 252.54 47.85 253.14 47.35C253.757 46.8333 254.065 45.9667 254.065 44.75C254.065 43.6333 253.757 42.85 253.14 42.4C252.54 41.9333 251.582 41.7 250.265 41.7H246.565V48.1H250.29ZM264.07 41.7V47.2H271.695V49.2H264.07V54.9H272.245V57H261.87V39.6H272.245V41.7H264.07Z" fill="#F5D79B"/>
<rect x="5" y="5.5" width="90" height="90" rx="15" fill="#29231F"/>
<circle cx="50" cy="50.5" r="30" fill="#F5D79B"/>
<circle cx="50" cy="50.5" r="25" fill="#29231F"/>
<circle cx="80" cy="20.5" r="5" fill="#F5D79B"/>
</svg>
