<svg width="324" height="83" viewBox="0 0 324 83" fill="none" xmlns="http://www.w3.org/2000/svg">
<path d="M15.3793 0.399998C19.346 0.399998 22.7293 1.21667 25.5293 2.85C28.3293 4.48333 29.7293 6.21666 29.7293 8.05C29.7293 8.55 29.6126 8.98333 29.3793 9.35C29.1793 9.68333 28.9126 9.93333 28.5793 10.1C28.2793 10.2333 27.946 10.3 27.5793 10.3C26.9793 10.3 26.0793 10 24.8793 9.4C23.6793 8.76667 22.346 8.15 20.8793 7.55C19.4126 6.91667 18.0626 6.6 16.8293 6.6C14.8626 6.6 13.8793 7.4 13.8793 9C13.8793 9.5 14.0293 9.98333 14.3293 10.45C14.6626 10.8833 15.1793 11.35 15.8793 11.85C16.5793 12.3167 17.2626 12.7333 17.9293 13.1C18.596 13.4667 19.5126 13.9667 20.6793 14.6C21.846 15.2 22.8293 15.7333 23.6293 16.2C26.196 17.6667 27.996 19.0667 29.0293 20.4C30.0626 21.7333 30.5793 23.2667 30.5793 25C30.5793 31.9 25.9293 35.35 16.6293 35.35C14.796 35.35 13.0126 35.1667 11.2793 34.8C9.5793 34.4333 8.0793 33.95 6.7793 33.35C5.51263 32.75 4.3793 32.0833 3.3793 31.35C2.41263 30.6167 1.6793 29.8667 1.1793 29.1C0.679297 28.3333 0.429297 27.6167 0.429297 26.95C0.429297 26.2167 0.66263 25.6 1.1293 25.1C1.6293 24.5667 2.34596 24.3 3.2793 24.3C3.9793 24.3 5.66263 24.75 8.3293 25.65C10.996 26.5167 13.146 26.95 14.7793 26.95C16.2793 26.95 17.0293 26.4333 17.0293 25.4C17.0293 25.1 16.9626 24.8333 16.8293 24.6C16.7293 24.3333 16.5293 24.0833 16.2293 23.85C15.9626 23.5833 15.646 23.35 15.2793 23.15C14.946 22.9167 14.4626 22.6333 13.8293 22.3C13.2293 21.9667 12.6126 21.6333 11.9793 21.3C11.3793 20.9667 10.5793 20.5333 9.5793 20C8.5793 19.4667 7.61263 18.9333 6.6793 18.4C5.44596 17.7 4.3793 16.8333 3.4793 15.8C2.61263 14.7667 1.9793 13.75 1.5793 12.75C1.1793 11.7167 0.979297 10.7667 0.979297 9.9C0.979297 7.1 2.2293 4.81666 4.7293 3.05C7.2293 1.28333 10.7793 0.399998 15.3793 0.399998ZM68.2961 30.25C68.2961 31.7167 67.8628 32.8833 66.9961 33.75C66.1294 34.5833 64.8628 35 63.1961 35C62.7628 35 62.3294 34.95 61.8961 34.85C61.4628 34.75 60.9961 34.5667 60.4961 34.3C60.0294 34.0333 59.6128 33.7833 59.2461 33.55C58.8794 33.3167 58.4128 32.9667 57.8461 32.5C57.3128 32 56.8794 31.6167 56.5461 31.35C56.2461 31.05 55.7628 30.5833 55.0961 29.95C54.4294 29.3167 53.9461 28.85 53.6461 28.55L44.4961 19.9V30.75C44.4961 32.3833 44.1794 33.5 43.5461 34.1C42.9461 34.7 41.9794 35 40.6461 35C39.1794 35 38.0961 34.6667 37.3961 34C36.6961 33.3333 36.3461 32.2167 36.3461 30.65V6.5C36.3461 4.6 36.8294 3.16667 37.7961 2.2C38.7628 1.23333 40.1461 0.749997 41.9461 0.749997C43.1794 0.749997 44.1628 0.949997 44.8961 1.35C45.6628 1.71666 46.5628 2.4 47.5961 3.4L60.2461 16V5.1C60.2461 3.66666 60.5961 2.6 61.2961 1.9C62.0294 1.16667 63.0128 0.799999 64.2461 0.799999C65.6794 0.799999 66.7128 1.13333 67.3461 1.8C67.9794 2.46666 68.2961 3.55 68.2961 5.05V30.25ZM89.568 8.9C88.1346 8.9 87.068 9.31667 86.368 10.15C85.7013 10.9833 85.368 12.4667 85.368 14.6V20.5H93.668V14.5C93.668 13.1 93.5013 11.9833 93.168 11.15C92.8346 10.2833 92.368 9.7 91.768 9.4C91.2013 9.06667 90.468 8.9 89.568 8.9ZM93.668 27.4H85.368V30.05C85.368 31.75 84.918 33 84.018 33.8C83.118 34.6 81.568 35 79.368 35C78.4346 35 77.668 34.8667 77.068 34.6C76.468 34.3333 75.9346 33.8833 75.468 33.25C75.0346 32.6167 74.7013 31.7 74.468 30.5C74.268 29.2667 74.1013 27.8 73.968 26.1C73.868 24.3667 73.818 22.1833 73.818 19.55C73.818 17.25 74.0513 15.15 74.518 13.25C75.018 11.3167 75.668 9.68333 76.468 8.35C77.3013 7.01667 78.2346 5.85 79.268 4.85C80.3013 3.81667 81.418 3.01667 82.618 2.45C83.8513 1.88333 85.0346 1.46666 86.168 1.2C87.3346 0.899997 88.5013 0.749997 89.668 0.749997C91.068 0.749997 92.4513 0.949997 93.818 1.35C95.1846 1.71666 96.568 2.36666 97.968 3.3C99.368 4.23333 100.585 5.4 101.618 6.8C102.685 8.16667 103.551 9.95 104.218 12.15C104.885 14.35 105.218 16.8167 105.218 19.55C105.218 23.95 105.051 27.2167 104.718 29.35C104.418 31.45 103.885 32.9167 103.118 33.75C102.385 34.5833 101.235 35 99.668 35C97.468 35 95.918 34.6 95.018 33.8C94.118 33 93.668 31.75 93.668 30.05V27.4ZM130.914 10.15C130.914 9.45 130.614 8.85 130.014 8.35C129.447 7.85 128.764 7.6 127.964 7.6C126.364 7.6 125.047 8.51666 124.014 10.35C122.98 12.15 122.464 14.2 122.464 16.5C122.464 18.2667 122.797 19.8667 123.464 21.3C124.13 22.7 125.097 23.8167 126.364 24.65C127.63 25.4833 129.097 25.9 130.764 25.9C131.997 25.9 133.18 25.6667 134.314 25.2C135.447 24.7 136.364 24.1667 137.064 23.6C137.764 23 138.48 22.4667 139.214 22C139.98 21.5 140.647 21.25 141.214 21.25C141.947 21.25 142.58 21.55 143.114 22.15C143.647 22.7167 143.914 23.3167 143.914 23.95C143.914 24.65 143.697 25.4667 143.264 26.4C142.864 27.3333 142.214 28.3333 141.314 29.4C140.414 30.4333 139.364 31.4 138.164 32.3C136.964 33.1667 135.464 33.9 133.664 34.5C131.897 35.0667 130.03 35.35 128.064 35.35C125.464 35.35 123.047 34.9667 120.814 34.2C118.614 33.4 116.697 32.2833 115.064 30.85C113.43 29.3833 112.147 27.55 111.214 25.35C110.28 23.15 109.814 20.6833 109.814 17.95C109.814 12.55 111.43 8.28333 114.664 5.15C117.897 2.01667 122.13 0.449998 127.364 0.449998C130.03 0.449998 132.497 0.899998 134.764 1.8C137.03 2.7 138.83 3.95 140.164 5.55C141.497 7.15 142.164 8.9 142.164 10.8C142.164 13 141.43 15 139.964 16.8C138.497 18.5667 136.597 19.45 134.264 19.45C132.93 19.45 131.73 19.0833 130.664 18.35C129.597 17.6167 129.064 16.5667 129.064 15.2C129.064 14.5667 129.364 13.6833 129.964 12.55C130.597 11.4167 130.914 10.6167 130.914 10.15ZM172.874 18.55C174.574 18.75 176.124 19.6167 177.524 21.15C178.924 22.65 179.624 24.5833 179.624 26.95C179.624 29.25 179.457 30.9667 179.124 32.1C178.79 33.2 178.224 33.9667 177.424 34.4C176.624 34.8 175.407 35 173.774 35C172.474 35 171.39 34.8167 170.524 34.45C169.69 34.0833 169.074 33.55 168.674 32.85C168.274 32.1167 168.074 31.1833 168.074 30.05C168.074 28.5833 168.007 27.3667 167.874 26.4C167.774 25.4 167.624 24.6167 167.424 24.05C167.257 23.45 166.99 23 166.624 22.7C166.257 22.4 165.89 22.2167 165.524 22.15C165.19 22.05 164.724 22 164.124 22H161.474V27.55C161.474 30.2167 160.957 32.1333 159.924 33.3C158.89 34.4333 157.374 35 155.374 35C153.44 35 152.007 34.4667 151.074 33.4C150.174 32.3 149.724 30.4667 149.724 27.9V7.05C149.724 4.95 150.107 3.38333 150.874 2.35C151.674 1.28333 152.957 0.749997 154.724 0.749997C155.757 0.749997 156.607 0.816664 157.274 0.949997C157.974 1.08333 158.64 1.33333 159.274 1.7C159.94 2.03333 160.424 2.58333 160.724 3.35C161.057 4.08333 161.224 5.03333 161.224 6.2C161.224 7.23333 161.207 8.4 161.174 9.7C161.174 10.9667 161.174 11.8667 161.174 12.4C161.174 12.8333 161.274 13.2 161.474 13.5C161.707 13.8 162.04 14.05 162.474 14.25C162.94 14.4167 163.507 14.5 164.174 14.5C165.607 14.5 166.557 13.9333 167.024 12.8C167.524 11.6667 167.774 9.35 167.774 5.85C167.774 4.11666 168.24 2.83333 169.174 2C170.107 1.16666 171.607 0.749997 173.674 0.749997C175.907 0.749997 177.407 1.18333 178.174 2.05C178.94 2.91667 179.324 4.46667 179.324 6.7C179.324 10.3667 178.674 13.2167 177.374 15.25C176.107 17.25 174.607 18.35 172.874 18.55ZM198.778 0.399998C202.744 0.399998 206.128 1.21667 208.928 2.85C211.728 4.48333 213.128 6.21666 213.128 8.05C213.128 8.55 213.011 8.98333 212.778 9.35C212.578 9.68333 212.311 9.93333 211.978 10.1C211.678 10.2333 211.344 10.3 210.978 10.3C210.378 10.3 209.478 10 208.278 9.4C207.078 8.76667 205.744 8.15 204.278 7.55C202.811 6.91667 201.461 6.6 200.228 6.6C198.261 6.6 197.278 7.4 197.278 9C197.278 9.5 197.428 9.98333 197.728 10.45C198.061 10.8833 198.578 11.35 199.278 11.85C199.978 12.3167 200.661 12.7333 201.328 13.1C201.994 13.4667 202.911 13.9667 204.078 14.6C205.244 15.2 206.228 15.7333 207.028 16.2C209.594 17.6667 211.394 19.0667 212.428 20.4C213.461 21.7333 213.978 23.2667 213.978 25C213.978 31.9 209.328 35.35 200.028 35.35C198.194 35.35 196.411 35.1667 194.678 34.8C192.978 34.4333 191.478 33.95 190.178 33.35C188.911 32.75 187.778 32.0833 186.778 31.35C185.811 30.6167 185.078 29.8667 184.578 29.1C184.078 28.3333 183.828 27.6167 183.828 26.95C183.828 26.2167 184.061 25.6 184.528 25.1C185.028 24.5667 185.744 24.3 186.678 24.3C187.378 24.3 189.061 24.75 191.728 25.65C194.394 26.5167 196.544 26.95 198.178 26.95C199.678 26.95 200.428 26.4333 200.428 25.4C200.428 25.1 200.361 24.8333 200.228 24.6C200.128 24.3333 199.928 24.0833 199.628 23.85C199.361 23.5833 199.044 23.35 198.678 23.15C198.344 22.9167 197.861 22.6333 197.228 22.3C196.628 21.9667 196.011 21.6333 195.378 21.3C194.778 20.9667 193.978 20.5333 192.978 20C191.978 19.4667 191.011 18.9333 190.078 18.4C188.844 17.7 187.778 16.8333 186.878 15.8C186.011 14.7667 185.378 13.75 184.978 12.75C184.578 11.7167 184.378 10.7667 184.378 9.9C184.378 7.1 185.628 4.81666 188.128 3.05C190.628 1.28333 194.178 0.399998 198.778 0.399998ZM236.006 28C237.14 28 238.106 27.5 238.906 26.5C239.74 25.5 240.323 24.2667 240.656 22.8C241.023 21.3333 241.206 19.7667 241.206 18.1C241.206 16.4 241.023 14.8 240.656 13.3C240.29 11.7667 239.69 10.4667 238.856 9.4C238.056 8.33333 237.106 7.8 236.006 7.8C234.94 7.8 234.006 8.33333 233.206 9.4C232.406 10.4667 231.806 11.7667 231.406 13.3C231.006 14.8333 230.806 16.4333 230.806 18.1C230.806 19.7667 230.99 21.3333 231.356 22.8C231.756 24.2667 232.356 25.5 233.156 26.5C233.99 27.5 234.94 28 236.006 28ZM244.856 33.35C242.223 34.65 239.256 35.3 235.956 35.3C232.69 35.3 229.74 34.65 227.106 33.35C224.506 32.0167 222.423 30.0333 220.856 27.4C219.29 24.7667 218.506 21.6667 218.506 18.1C218.506 12.7 220.123 8.41667 223.356 5.25C226.623 2.05 230.84 0.449998 236.006 0.449998C241.173 0.449998 245.39 2.05 248.656 5.25C251.923 8.41667 253.556 12.7 253.556 18.1C253.556 21.6667 252.756 24.7667 251.156 27.4C249.59 30.0333 247.49 32.0167 244.856 33.35ZM278.341 10.7C278.341 9.1 277.757 8 276.591 7.4C275.424 6.8 273.457 6.5 270.691 6.5V15.15C273.291 15.15 275.207 14.8333 276.441 14.2C277.707 13.5333 278.341 12.3667 278.341 10.7ZM270.691 27.5C270.691 32.5 268.741 35 264.841 35C262.874 35 261.424 34.4833 260.491 33.45C259.591 32.3833 259.141 30.5167 259.141 27.85V6.75C259.141 4.81667 259.657 3.35 260.691 2.35C261.757 1.31667 263.141 0.799999 264.841 0.799999H275.341C279.441 0.799999 282.757 1.76667 285.291 3.7C287.824 5.6 289.091 8.05 289.091 11.05C289.091 13.3167 288.607 15.1 287.641 16.4C286.707 17.6667 285.191 18.6 283.091 19.2C284.691 19.3 286.174 20.0833 287.541 21.55C288.907 22.9833 289.591 24.7833 289.591 26.95C289.591 29.15 289.374 30.85 288.941 32.05C288.541 33.2167 287.957 34 287.191 34.4C286.424 34.8 285.341 35 283.941 35C281.974 35 280.524 34.6 279.591 33.8C278.691 32.9667 278.241 31.7167 278.241 30.05C278.241 27.9833 278.041 26.4 277.641 25.3C277.241 24.1667 276.724 23.4333 276.091 23.1C275.457 22.7667 274.574 22.6 273.441 22.6L270.691 22.65V27.5ZM315.677 14.7C317.444 14.7 318.677 14.9833 319.377 15.55C320.11 16.1167 320.477 17.0833 320.477 18.45C320.477 19.5833 320.044 20.4 319.177 20.9C318.344 21.3667 317.027 21.6 315.227 21.6H307.127V26.9L317.977 26.95C319.844 26.95 321.177 27.2333 321.977 27.8C322.81 28.3333 323.227 29.3 323.227 30.7C323.227 32.3 322.744 33.4167 321.777 34.05C320.844 34.6833 319.41 35 317.477 35H301.277C299.31 35 297.86 34.4833 296.927 33.45C296.027 32.3833 295.577 30.5167 295.577 27.85V6.75C295.577 2.75 297.477 0.749997 301.277 0.749997H317.477C319.41 0.749997 320.844 1.05 321.777 1.65C322.744 2.25 323.227 3.33333 323.227 4.9C323.227 6.36666 322.81 7.4 321.977 8C321.177 8.56667 319.844 8.85 317.977 8.85H307.077V14.7H315.677Z" fill="#F5D79B"/>
<line x1="20" y1="62" x2="90" y2="62" stroke="#F5D79B" stroke-width="3"/>
<path d="M106.79 69.49V57.485H111.725V69.49H106.79ZM106.79 57.485C106.79 56.1317 107.128 54.9183 107.805 53.845C108.481 52.7717 109.403 51.9317 110.57 51.325C111.76 50.7183 113.101 50.415 114.595 50.415V54.265C113.708 54.265 113.008 54.545 112.495 55.105C111.981 55.665 111.725 56.4583 111.725 57.485H106.79ZM106.79 69.455H111.725C111.725 70.4817 111.981 71.2867 112.495 71.87C113.008 72.43 113.708 72.71 114.595 72.71V76.56C113.101 76.56 111.76 76.2567 110.57 75.65C109.403 75.02 108.481 74.18 107.805 73.13C107.128 72.0567 106.79 70.8317 106.79 69.455ZM118.06 58.605C117.966 57.2517 117.605 56.19 116.975 55.42C116.368 54.65 115.563 54.265 114.56 54.265V50.415C116.823 50.415 118.643 51.0683 120.02 52.375C121.42 53.6583 122.248 55.4667 122.505 57.8L118.06 58.605ZM118.06 68.37L122.505 69.14C122.248 71.4733 121.42 73.2933 120.02 74.6C118.643 75.9067 116.823 76.56 114.56 76.56V72.71C115.563 72.71 116.368 72.325 116.975 71.555C117.605 70.785 117.966 69.7233 118.06 68.37ZM134.667 68.685V65.29H139.602V68.685H134.667ZM124.517 68.685V65.29H129.452V68.685H124.517ZM131.867 61.3V57.45H132.217V61.3H131.867ZM131.867 76.525V72.675H132.217V76.525H131.867ZM124.517 65.325C124.517 63.8083 124.843 62.4667 125.497 61.3C126.15 60.11 127.025 59.1767 128.122 58.5C129.242 57.8 130.513 57.45 131.937 57.45V61.3C131.143 61.3 130.525 61.65 130.082 62.35C129.662 63.05 129.452 64.0417 129.452 65.325H124.517ZM139.602 65.325H134.667C134.667 64.0417 134.445 63.05 134.002 62.35C133.582 61.65 132.975 61.3 132.182 61.3V57.45C133.605 57.45 134.865 57.8 135.962 58.5C137.082 59.1767 137.968 60.11 138.622 61.3C139.275 62.4667 139.602 63.8083 139.602 65.325ZM124.517 68.65H129.452C129.452 69.91 129.662 70.9017 130.082 71.625C130.525 72.325 131.143 72.675 131.937 72.675V76.525C130.513 76.525 129.242 76.1867 128.122 75.51C127.025 74.81 126.15 73.865 125.497 72.675C124.843 71.485 124.517 70.1433 124.517 68.65ZM139.602 68.65C139.602 70.1433 139.275 71.485 138.622 72.675C137.968 73.865 137.082 74.81 135.962 75.51C134.865 76.1867 133.605 76.525 132.182 76.525V72.675C132.975 72.675 133.582 72.325 134.002 71.625C134.445 70.9017 134.667 69.91 134.667 68.65H139.602ZM152.235 68.685V65.29H157.17V68.685H152.235ZM142.085 68.685V65.29H147.02V68.685H142.085ZM149.435 61.3V57.45H149.785V61.3H149.435ZM149.435 76.525V72.675H149.785V76.525H149.435ZM142.085 65.325C142.085 63.8083 142.412 62.4667 143.065 61.3C143.718 60.11 144.593 59.1767 145.69 58.5C146.81 57.8 148.082 57.45 149.505 57.45V61.3C148.712 61.3 148.093 61.65 147.65 62.35C147.23 63.05 147.02 64.0417 147.02 65.325H142.085ZM157.17 65.325H152.235C152.235 64.0417 152.013 63.05 151.57 62.35C151.15 61.65 150.543 61.3 149.75 61.3V57.45C151.173 57.45 152.433 57.8 153.53 58.5C154.65 59.1767 155.537 60.11 156.19 61.3C156.843 62.4667 157.17 63.8083 157.17 65.325ZM142.085 68.65H147.02C147.02 69.91 147.23 70.9017 147.65 71.625C148.093 72.325 148.712 72.675 149.505 72.675V76.525C148.082 76.525 146.81 76.1867 145.69 75.51C144.593 74.81 143.718 73.865 143.065 72.675C142.412 71.485 142.085 70.1433 142.085 68.65ZM157.17 68.65C157.17 70.1433 156.843 71.485 156.19 72.675C155.537 73.865 154.65 74.81 153.53 75.51C152.433 76.1867 151.173 76.525 149.75 76.525V72.675C150.543 72.675 151.15 72.325 151.57 71.625C152.013 70.9017 152.235 69.91 152.235 68.65H157.17ZM169.811 76L163.441 66.095L168.376 65.08L175.026 76H169.811ZM164.491 70.4L160.396 68.755L169.041 57.975H174.501L164.491 70.4ZM160.221 76V50.415H165.156V76H160.221ZM178.071 76V57.975H183.006V76H178.071ZM180.521 55.56C179.727 55.56 179.062 55.3033 178.526 54.79C178.012 54.2533 177.756 53.5883 177.756 52.795C177.756 52.0017 178.012 51.3367 178.526 50.8C179.062 50.24 179.727 49.96 180.521 49.96C181.314 49.96 181.979 50.24 182.516 50.8C183.076 51.3367 183.356 52.0017 183.356 52.795C183.356 53.5883 183.076 54.2533 182.516 54.79C181.979 55.3033 181.314 55.56 180.521 55.56ZM189.006 68.265V65.395H201.326V68.265H189.006ZM193.801 76.56V72.71H194.116V76.56H193.801ZM186.416 68.72V65.255H191.351V68.72H186.416ZM196.391 65.395V64.625H201.326V65.395H196.391ZM201.326 64.625H196.391C196.391 63.5983 196.158 62.7817 195.691 62.175C195.224 61.5683 194.594 61.265 193.801 61.265V57.415C195.248 57.415 196.531 57.73 197.651 58.36C198.794 58.99 199.693 59.8533 200.346 60.95C200.999 62.0233 201.326 63.2483 201.326 64.625ZM196.706 69.84L201.081 70.645C200.894 71.8583 200.486 72.9083 199.856 73.795C199.226 74.6817 198.421 75.37 197.441 75.86C196.461 76.3267 195.353 76.56 194.116 76.56V72.71C194.793 72.71 195.364 72.465 195.831 71.975C196.298 71.4617 196.589 70.75 196.706 69.84ZM186.416 65.29C186.416 63.7733 186.743 62.4317 187.396 61.265C188.049 60.075 188.924 59.1417 190.021 58.465C191.141 57.765 192.413 57.415 193.836 57.415V61.265C193.043 61.265 192.424 61.6267 191.981 62.35C191.561 63.05 191.351 64.03 191.351 65.29H186.416ZM186.416 68.685H191.351C191.351 69.945 191.561 70.9367 191.981 71.66C192.424 72.36 193.043 72.71 193.836 72.71V76.56C192.413 76.56 191.141 76.2217 190.021 75.545C188.924 74.845 188.049 73.9 187.396 72.71C186.743 71.52 186.416 70.1783 186.416 68.685ZM213.053 71.1C213.053 70.6333 212.832 70.2483 212.388 69.945C211.968 69.6183 211.42 69.3267 210.743 69.07C210.067 68.79 209.355 68.4983 208.608 68.195C207.862 67.8683 207.138 67.4833 206.438 67.04C205.762 66.5967 205.213 66.0483 204.793 65.395C204.373 64.7183 204.163 63.9017 204.163 62.945C204.163 62.945 204.315 62.945 204.618 62.945C204.945 62.945 205.33 62.945 205.773 62.945C206.24 62.945 206.707 62.945 207.173 62.945C207.64 62.945 208.025 62.945 208.328 62.945C208.655 62.945 208.818 62.945 208.818 62.945C208.818 63.4117 209.028 63.8083 209.448 64.135C209.892 64.4383 210.452 64.73 211.128 65.01C211.805 65.2667 212.517 65.5583 213.263 65.885C214.033 66.1883 214.757 66.5617 215.433 67.005C216.11 67.4483 216.658 67.9967 217.078 68.65C217.522 69.3033 217.743 70.12 217.743 71.1C217.743 71.1 217.58 71.1 217.253 71.1C216.927 71.1 216.53 71.1 216.063 71.1C215.62 71.1 215.165 71.1 214.698 71.1C214.232 71.1 213.835 71.1 213.508 71.1C213.205 71.1 213.053 71.1 213.053 71.1ZM210.743 76.56V72.675C211.443 72.675 212.003 72.535 212.423 72.255C212.843 71.9517 213.053 71.5667 213.053 71.1H217.743C217.743 72.1967 217.452 73.165 216.868 74.005C216.308 74.8217 215.503 75.4517 214.453 75.895C213.427 76.3383 212.19 76.56 210.743 76.56ZM204.163 62.945C204.163 61.895 204.443 60.95 205.003 60.11C205.587 59.27 206.38 58.6167 207.383 58.15C208.387 57.66 209.507 57.415 210.743 57.415V61.265C210.207 61.265 209.752 61.4283 209.378 61.755C209.005 62.0817 208.818 62.4783 208.818 62.945H204.163ZM208.188 69.84C208.305 70.75 208.597 71.45 209.063 71.94C209.53 72.43 210.102 72.675 210.778 72.675V76.56C209.542 76.56 208.433 76.3267 207.453 75.86C206.473 75.37 205.668 74.6817 205.038 73.795C204.432 72.885 204.023 71.835 203.813 70.645L208.188 69.84ZM213.333 64.135C213.217 63.2017 212.925 62.49 212.458 62C211.992 61.51 211.42 61.265 210.743 61.265V57.415C211.98 57.415 213.088 57.66 214.068 58.15C215.048 58.6167 215.853 59.2933 216.483 60.18C217.113 61.0433 217.522 62.0933 217.708 63.33L213.333 64.135Z" fill="#F5D79B"/>
<line x1="234" y1="62" x2="304" y2="62" stroke="#F5D79B" stroke-width="3"/>
</svg>
